<svg xmlns="http://www.w3.org/2000/svg" x="0px" y="0px"
width="70" height="70"
viewBox="0 0 172 172"
style=" fill:#000000;"><g fill="none" fill-rule="nonzero" stroke="none" stroke-width="none" stroke-linecap="none" stroke-linejoin="none" stroke-miterlimit="10" stroke-dasharray="" stroke-dashoffset="0" font-family="none" font-weight="none" font-size="none" text-anchor="none" style="mix-blend-mode: normal"><path d="M0,172v-172h172v172z" fill="none" stroke="none" stroke-width="1" stroke-linecap="butt" stroke-linejoin="miter"></path><g><path d="M139.75,153.1875h-107.5v-67.1875v0c12.63125,-8.33125 20.15625,-22.575 20.15625,-37.625v-29.5625h13.4375v6.71875c0,11.15313 9.00312,20.15625 20.15625,20.15625v0c11.15313,0 20.15625,-9.00312 20.15625,-20.15625v-6.71875h13.4375v29.5625c0,15.18437 7.525,29.29375 20.15625,37.625v0z" fill="#ff0004" stroke="none" stroke-width="1" stroke-linecap="butt" stroke-linejoin="miter"></path><path d="M139.75,86h-87.34375v-37.625c0,15.18437 -7.525,29.29375 -20.15625,37.625v40.3125v26.875h20.15625v-26.875h87.34375z" fill="#ffffff" stroke="none" stroke-width="1" stroke-linecap="butt" stroke-linejoin="miter"></path><path d="M79.81875,119.45938c-1.88125,-0.26875 -3.225,-2.15 -3.225,-4.03125v-7.92813h-2.55312c-2.01562,0 -3.7625,-1.34375 -4.16563,-3.225c-0.40313,-2.55312 1.47813,-4.8375 4.03125,-4.8375h0.13438c1.34375,0 2.55312,-1.075 2.55312,-2.55313v0c0,-2.01562 1.34375,-3.7625 3.225,-4.16562c2.55313,-0.5375 4.8375,1.47812 4.8375,3.89688v18.8125c0,2.6875 -2.28437,4.56875 -4.8375,4.03125zM97.2875,119.45938c-1.88125,-0.26875 -3.225,-2.15 -3.225,-4.03125v-7.92813h-2.55313c-2.01562,0 -3.7625,-1.34375 -4.16562,-3.225c-0.40313,-2.55312 1.47812,-4.8375 4.03125,-4.8375h0.13437c1.34375,0 2.55313,-1.075 2.55313,-2.55313v0c0,-2.01562 1.34375,-3.7625 3.225,-4.16562c2.55313,-0.5375 4.8375,1.47812 4.8375,3.89688v18.8125c0,2.6875 -2.28437,4.56875 -4.8375,4.03125z" fill="#000000" stroke="none" stroke-width="1" stroke-linecap="butt" stroke-linejoin="miter"></path><path d="M139.75,153.1875h-107.5v-67.1875v0c12.63125,-8.33125 20.15625,-22.575 20.15625,-37.625v-29.5625h13.4375v6.71875c0,11.15313 9.00312,20.15625 20.15625,20.15625v0c11.15313,0 20.15625,-9.00312 20.15625,-20.15625v-6.71875h13.4375v29.5625c0,15.18437 7.525,29.29375 20.15625,37.625v0z" fill="none" stroke="#000000" stroke-width="8.0625" stroke-linecap="round" stroke-linejoin="round"></path></g></g></svg>